
<?xml version="1.0" standalone="no"?>
<!DOCTYPE svg PUBLIC "-//W3C//DTD SVG 20010904//EN"
 "http://www.w3.org/TR/2001/REC-SVG-20010904/DTD/svg10.dtd">
<svg version="1.0" xmlns="http://www.w3.org/2000/svg"
 width="1024.000000pt" height="1024.000000pt" viewBox="0 0 1024.000000 1024.000000"
 preserveAspectRatio="xMidYMid meet">

<g transform="translate(0.000000,1024.000000) scale(0.100000,-0.100000)"
fill="#000000" stroke="none">
<path d="M5770 7125 c-65 -21 -102 -62 -107 -122 -4 -43 0 -58 42 -133 168
-309 280 -615 349 -956 29 -143 56 -362 56 -457 0 -114 16 -107 -250 -107
-271 0 -251 -11 -269 145 -43 367 -192 772 -400 1081 -176 263 -310 377 -441
377 -66 0 -114 -22 -140 -66 -37 -60 -26 -93 95 -287 43 -69 102 -171 131
-227 138 -269 253 -652 271 -903 9 -127 25 -120 -281 -120 -195 0 -256 3 -264
13 -6 7 -20 64 -31 127 -85 480 -367 995 -606 1106 -123 58 -255 7 -255 -98 0
-50 13 -81 100 -232 156 -274 270 -589 295 -822 11 -97 18 -95 -268 -92 l-241
3 -12 25 c-7 14 -26 77 -42 140 -53 204 -155 413 -255 526 -108 120 -231 146
-302 63 -35 -43 -33 -97 6 -174 88 -173 157 -371 175 -503 10 -81 2 -84 -192
-80 -145 3 -164 5 -184 23 -12 11 -66 85 -120 165 -140 206 -282 374 -524 616
-224 223 -395 367 -591 497 -220 146 -350 194 -405 149 -44 -35 -35 -76 97
-452 243 -693 343 -1048 343 -1223 0 -131 -86 -443 -327 -1187 -124 -383 -138
-449 -105 -490 32 -39 85 -31 216 34 207 101 489 320 757 586 233 232 414 452
572 696 36 56 76 109 88 118 34 24 350 24 370 0 28 -34 -39 -268 -143 -504
-33 -74 -60 -151 -61 -171 -2 -48 26 -87 80 -111 75 -33 138 -12 221 72 126
128 253 380 307 610 30 130 7 120 283 120 172 0 241 -3 250 -12 18 -18 15 -60
-12 -178 -63 -280 -172 -549 -326 -808 -73 -123 -65 -219 22 -263 113 -58 247
15 396 214 205 274 341 590 397 922 9 55 21 106 27 113 8 9 74 12 268 12 224
0 259 -2 271 -16 29 -35 -46 -400 -137 -666 -83 -241 -147 -379 -274 -588 -95
-157 -107 -192 -90 -244 27 -82 146 -121 241 -79 101 46 204 154 337 356 223
338 377 748 422 1126 5 46 15 90 21 97 18 22 461 20 479 -1 25 -31 -6 -327
-65 -602 -56 -268 -151 -539 -286 -825 -86 -180 -97 -239 -57 -297 53 -78 162
-95 467 -72 1005 76 1827 316 2422 707 208 137 274 227 219 297 -43 54 -119
47 -653 -60 l-339 -68 -19 24 c-10 13 -19 31 -19 41 0 59 321 285 961 676 315
193 340 211 364 260 37 78 9 155 -131 364 -362 544 -907 996 -1609 1336 -379
184 -781 318 -1280 428 -203 45 -248 49 -305 31z m2151 -1068 c73 -49 99 -130
63 -200 -9 -17 -87 -104 -174 -193 -86 -89 -160 -172 -163 -184 -4 -17 11 -40
73 -108 43 -48 110 -118 150 -157 83 -82 100 -109 100 -165 0 -70 -54 -140
-119 -155 -68 -15 -101 7 -264 170 -112 113 -160 155 -177 155 -17 0 -69 -45
-189 -164 -91 -90 -176 -169 -188 -175 -35 -18 -114 -13 -151 9 -67 41 -92
132 -55 203 9 18 90 107 180 198 89 92 163 174 163 184 0 9 -68 87 -151 173
-184 190 -209 223 -209 272 0 69 79 150 147 150 57 0 103 -33 258 -189 126
-127 154 -151 180 -151 25 0 54 24 190 163 88 90 169 168 180 175 35 20 118
15 156 -11z"/>
</g>
</svg>
